<svg version="1.1"
     width="1000" height="1000"
     style="background-color: rgb(255, 255, 255);"
     xmlns="http://www.w3.org/2000/svg">

<polyline
  points="472.35351820362814,551.4985156199283,479.8937901479775,551.7811661541585,487.4279031415245,552.0082106270264,494.95858387655113,552.1798043309351,502.48855337409617,552.2960469640706,510.0205311366819,552.3569828333282,517.5572392953034,552.362600925009,525.1014067643094,552.3128348435282,532.6557734178551,552.2075626177912,540.2230943017087,552.0466063743175,547.8061438944152,551.8297318755888,555.407720432077,551.5566479214992,563.0306503113899,551.2270056111704,570.6777925860051,550.8403974617482,573.3741501492811,550.6907279195357,573.3741501492811,550.6907279195357,572.7629858238414,542.2111390559819,572.153728685932,533.7580136763036,571.5460327698723,525.3265516773379,570.9395556124671,516.912001554232,570.3339574753968,508.50964961149214,569.7289005805867,500.1148093541152,569.124048354882,491.722811007821,568.9242024280851,488.95005677984204,568.9242024280851,488.95005677984204,561.8299813765962,489.4411255308124,554.7564429672067,489.86677405567247,547.7012723775379,490.2274573869205,541.1756172244839,490.5041369158823,541.1756172244839,490.5041369158823,540.8672331281781,482.14273535640393,540.5585142880584,473.7722514859621,540.2492882886942,465.388010486232,539.9393815826577,456.98530683763886,539.6286190988441,448.5593936994526,539.3168238435245,440.1054720927852,539.0038164921824,431.61867983364766,538.9001079526984,428.80675322649887,538.9001079526984,428.80675322649887,532.4231940807865,429.0852164559474,525.9558036409317,429.2933832018311,519.4961782571555,429.4314768839288,513.0425682974723,429.49966329632394,506.75940202588833,429.4989728379277,506.75940202588833,429.4989728379277,500.31255513592913,429.4294104876213,493.8665513898696,429.29009615428663,487.4196556394228,429.08096885455075,480.9701313246011,428.8019105688912,474.51623844017206,428.4527460362717,468.0562314927262,428.03324243962686,461.5883574430948,427.5431089811213,455.11085362880016,426.98199634573103,448.6219456611157,426.34949605129185,447.5633860480895,426.23965951935605,447.5633860480895,426.23965951935605,446.8109849468412,434.7353161685287,446.0615830394696,443.19710789371277,445.31474838431063,451.6299119173056,444.570054838941,460.0385399803938,443.82708107482824,468.42774946874954,443.0854096150826,476.80225427795773,442.34462589059376,485.1667354709134,441.6043173099995,493.5258517792067,440.86407233902366,501.8842499986475,440.1234795848215,510.24657532831515,439.3821268809899,518.6174817020577,438.6396003689173,527.0016421613063,437.8954835711233,535.4037593184067,437.43795057400257,540.5699600742527,437.43795057400257,540.5699600742527,444.96414362443693,541.1272788194095,452.4717185580855,541.6262067327657,457.1026184465834,541.9054762711565,457.1026184465834,541.9054762711565,456.5544242022853,550.3271158079912,456.5285039654236,550.7253157879435,456.5285039654236,550.7253157879435,464.09056067509306,551.1251831892749,471.6407105644053,551.4689374632577,472.35351820362814,551.4985156199283"
  stroke="#000000"
  fill="none"
></polyline>

</svg>
